<svg xmlns="http://www.w3.org/2000/svg" width="28" height="28" viewBox="0 0 28 28" fill="none">
  <path d="M22.75 22.75H5.25C4.78587 22.75 4.34075 22.5744 4.01256 22.2618C3.68437 21.9493 3.5 21.5254 3.5 21.0833V9.41667C3.5 8.97464 3.68437 8.55072 4.01256 8.23816C4.34075 7.92559 4.78587 7.75 5.25 7.75H8.74936L10.4994 5.25H17.4994L19.2494 7.75H22.75C23.2141 7.75 23.6592 7.92559 23.9874 8.23816C24.3156 8.55072 24.5 8.97464 24.5 9.41667V21.0833C24.5 21.5254 24.3156 21.9493 23.9874 22.2618C23.6592 22.5744 23.2141 22.75 22.75 22.75Z" stroke="#32373E" stroke-width="1.5" stroke-linecap="round" stroke-linejoin="round"/>
  <path d="M14 18.375C16.1746 18.375 17.9375 16.6121 17.9375 14.4375C17.9375 12.2629 16.1746 10.5 14 10.5C11.8254 10.5 10.0625 12.2629 10.0625 14.4375C10.0625 16.6121 11.8254 18.375 14 18.375Z" stroke="#32373E" stroke-width="1.5" stroke-linecap="round" stroke-linejoin="round"/>
</svg>
