<svg xmlns="http://www.w3.org/2000/svg" width="24" height="24" viewBox="0 0 24 24" fill="none">
  <g clip-path="url(#clip0_34_29017)">
    <path d="M18.4987 10.8556C18.4217 6.50395 14.87 3 10.5 3C6.0817 3 2.5 6.5817 2.5 11C2.5 13.0851 3.29765 14.9838 4.60446 16.4077L4.00522 20.0128L7.5625 18.4849C9.12985 19.0061 10.609 19.1364 12 18.8758" stroke="#828282" stroke-width="1.5" stroke-linecap="round" stroke-linejoin="round"/>
    <path d="M7.4375 9.9668C7.98977 9.9668 8.4375 9.5191 8.4375 8.9668C8.4375 8.41454 7.98977 7.9668 7.4375 7.9668C6.88523 7.9668 6.4375 8.41454 6.4375 8.9668C6.4375 9.5191 6.88523 9.9668 7.4375 9.9668Z" fill="#828282"/>
    <path d="M11.9375 9.9668C12.4898 9.9668 12.9375 9.5191 12.9375 8.9668C12.9375 8.41454 12.4898 7.9668 11.9375 7.9668C11.3852 7.9668 10.9375 8.41454 10.9375 8.9668C10.9375 9.5191 11.3852 9.9668 11.9375 9.9668Z" fill="#828282"/>
    <path d="M19.3809 19.9646C18.5067 20.6151 17.4233 21 16.25 21C13.3505 21 11 18.6495 11 15.75C11 12.8505 13.3505 10.5 16.25 10.5C19.1495 10.5 21.5 12.8505 21.5 15.75C21.5 16.5498 21.3211 17.308 21.0012 17.9864" stroke="#828282" stroke-width="1.5" stroke-linecap="round" stroke-linejoin="round"/>
    <path d="M21.0012 17.9863L21.5 20.9999L19.3809 19.9646" stroke="#828282" stroke-width="1.5" stroke-linecap="round" stroke-linejoin="round"/>
    <path d="M17.75 16.1997C17.3358 16.1997 17 15.8639 17 15.4497C17 15.0355 17.3358 14.6997 17.75 14.6997C18.1642 14.6997 18.5 15.0355 18.5 15.4497C18.5 15.8639 18.1642 16.1997 17.75 16.1997Z" fill="#828282"/>
    <path d="M14.375 16.1997C13.9608 16.1997 13.625 15.8639 13.625 15.4497C13.625 15.0355 13.9608 14.6997 14.375 14.6997C14.7892 14.6997 15.125 15.0355 15.125 15.4497C15.125 15.8639 14.7892 16.1997 14.375 16.1997Z" fill="#828282"/>
  </g>
  <defs>
    <clipPath id="clip0_34_29017">
      <rect width="24" height="24" fill="white"/>
    </clipPath>
  </defs>
</svg>
