<svg width="340" height="56" viewBox="0 0 340 56" fill="none" xmlns="http://www.w3.org/2000/svg">
<path fill-rule="evenodd" clip-rule="evenodd" d="M13.2968 0.929688H44.3155C51.1215 0.929688 56.6729 6.41505 56.6729 13.14V43.7899C56.6729 50.5148 51.0901 56.0002 44.3155 56.0002H13.2968C6.49084 56.0002 0.939453 50.5148 0.939453 43.7899V13.14C0.939453 6.41505 6.5222 0.929688 13.2968 0.929688Z" fill="#C5C7C8"/>
<path fill-rule="evenodd" clip-rule="evenodd" d="M12.3573 0H43.3761C50.182 0 55.7334 5.48536 55.7334 12.2103V42.8602C55.7334 49.5852 50.1507 55.0705 43.3761 55.0705H12.3573C5.55139 55.0705 0 49.5852 0 42.8602V12.2103C0 5.48536 5.58275 0 12.3573 0Z" fill="#F14635"/>
<path fill-rule="evenodd" clip-rule="evenodd" d="M17.2832 15.3092C17.1264 15.4952 17.0323 15.7431 17.0323 16.022C17.0323 16.6728 17.5655 17.1997 18.2241 17.1997C18.8827 17.1997 19.4159 16.6728 19.4159 16.022C19.4159 15.6811 19.2591 15.3712 19.0396 15.1543C19.0709 14.6894 19.1023 14.2246 19.1964 13.7907H37.5755C37.1678 11.9932 36.2269 10.4127 34.941 9.17307C33.216 7.49957 30.8323 6.47687 28.2291 6.47687C25.6259 6.47687 23.2737 7.49957 21.5487 9.14208C19.8236 10.8156 18.7259 13.1089 18.6318 15.6501C18.6318 16.022 18.3182 16.3009 17.9418 16.2699C17.5655 16.2699 17.2832 15.96 17.2832 15.5881C17.2518 15.4952 17.2518 15.4022 17.2832 15.3092ZM17.1264 20.5777L17.095 24.5755C17.1264 25.1333 17.5655 25.5672 18.0986 25.5982H18.13H18.1614H18.1927H27.9782C24.685 28.8522 21.5173 32.0442 18.2241 35.3602C17.9732 35.5462 17.8164 35.8561 17.8164 36.197C17.8164 36.228 17.8164 36.228 17.8164 36.259V39.2651V39.2961C17.8164 39.8849 18.3182 40.3497 18.8827 40.3497C18.9141 40.3497 18.9141 40.3497 18.9455 40.3497H37.9205H37.9519C38.5478 40.3497 39.0183 39.8849 39.0183 39.2961C39.0183 39.2651 39.0183 39.2341 39.0183 39.1721L39.0496 35.1743C39.0183 34.6165 38.5792 34.1826 38.046 34.1516H38.0146H37.9833H37.9519H28.1664C31.4596 30.8976 34.6273 27.7055 37.9205 24.3895C38.1714 24.2036 38.3283 23.8937 38.3283 23.5528C38.3283 23.5218 38.3283 23.5218 38.3283 23.4908V20.4847V20.4537C38.3283 19.8649 37.8264 19.4 37.2619 19.4C37.2305 19.4 37.2305 19.4 37.1992 19.4H18.2241H18.1927C17.5968 19.4 17.1264 19.8649 17.1264 20.4537C17.1264 20.4847 17.1264 20.5157 17.1264 20.5777ZM13.0177 13.7597H17.4714C17.9105 11.5903 19.0395 9.63793 20.5764 8.15037C22.5523 6.25994 25.2496 5.11328 28.1978 5.11328C31.1773 5.11328 33.8746 6.29093 35.8505 8.21235C37.8264 10.1338 39.081 12.768 39.1437 15.7121C39.1437 16.084 38.8614 16.3629 38.4851 16.3939C38.1087 16.3939 37.8264 16.115 37.7951 15.7431C37.7951 15.5572 37.7951 15.4022 37.7637 15.2472C37.5755 15.4642 37.4501 15.7431 37.4501 16.053C37.4501 16.7038 37.9833 17.2307 38.6419 17.2307C39.3005 17.2307 39.8337 16.7038 39.8337 16.053C39.8337 15.6811 39.6455 15.3402 39.3946 15.1233C39.3633 14.6894 39.3319 14.2246 39.2378 13.8217H42.9387C44.4442 13.8217 45.6674 15.0303 45.6674 16.5179V43.2939C45.6674 44.7814 44.4442 45.9901 42.9387 45.9901H13.0177C11.5122 45.9901 10.2891 44.7814 10.2891 43.2939V16.4559C10.2891 14.9683 11.5122 13.7597 13.0177 13.7597Z" fill="white"/>
<path fill-rule="evenodd" clip-rule="evenodd" d="M18.3438 15.2786C18.5319 9.7313 23.111 5.36161 28.6938 5.45458C34.2452 5.54755 38.7302 10.0722 38.7302 15.6195" fill="#F14635"/>
<path d="M86.1787 20.0866L77.3192 33.8791H86.3613V37.8456H71.9609V34.5402L80.8204 20.7778H72.1741V16.8113H86.1787V20.0866Z" fill="#32373E"/>
<path d="M108.122 35.1111C105.971 37.2145 103.353 38.2662 100.267 38.2662C97.1824 38.2662 94.5641 37.2145 92.4127 35.1111C90.2816 32.9676 89.216 30.3734 89.216 27.3284C89.216 24.2634 90.2816 21.6792 92.4127 19.5758C94.5641 17.4524 97.1824 16.3906 100.267 16.3906C103.353 16.3906 105.971 17.4524 108.122 19.5758C110.274 21.6792 111.349 24.2634 111.349 27.3284C111.349 30.3934 110.274 32.9876 108.122 35.1111ZM95.3659 32.2865C96.6648 33.5686 98.2987 34.2096 100.267 34.2096C102.236 34.2096 103.87 33.5686 105.169 32.2865C106.488 30.9844 107.148 29.3317 107.148 27.3284C107.148 25.3252 106.488 23.6725 105.169 22.3704C103.85 21.0682 102.216 20.4172 100.267 20.4172C98.319 20.4172 96.6851 21.0682 95.3659 22.3704C94.0466 23.6725 93.3869 25.3252 93.3869 27.3284C93.3869 29.3317 94.0466 30.9844 95.3659 32.2865Z" fill="#32373E"/>
<path d="M128.459 29.6422V16.8113H132.661V37.8456H129.464L120.33 24.9846V37.8456H116.129V16.8113H119.326L128.459 29.6422Z" fill="#32373E"/>
<path d="M156.707 37.8456H152.141L150.862 34.0594H142.368L141.089 37.8456H136.553L144.012 16.8113H149.218L156.707 37.8456ZM146.63 21.5891L143.707 30.1831H149.553L146.63 21.5891Z" fill="#32373E"/>
<path d="M178.505 27.0279L186.695 37.8456H181.854L174.243 27.9895V37.8456H170.041V16.8113H174.243V26.0964L181.549 16.8113H186.39L178.505 27.0279Z" fill="#32373E"/>
<path d="M206.717 35.1111C204.566 37.2145 201.947 38.2662 198.862 38.2662C195.777 38.2662 193.159 37.2145 191.008 35.1111C188.876 32.9676 187.811 30.3734 187.811 27.3284C187.811 24.2634 188.876 21.6792 191.008 19.5758C193.159 17.4524 195.777 16.3906 198.862 16.3906C201.947 16.3906 204.566 17.4524 206.717 19.5758C208.868 21.6792 209.944 24.2634 209.944 27.3284C209.944 30.3934 208.868 32.9876 206.717 35.1111ZM193.961 32.2865C195.26 33.5686 196.893 34.2096 198.862 34.2096C200.831 34.2096 202.465 33.5686 203.764 32.2865C205.083 30.9844 205.743 29.3317 205.743 27.3284C205.743 25.3252 205.083 23.6725 203.764 22.3704C202.445 21.0682 200.811 20.4172 198.862 20.4172C196.914 20.4172 195.28 21.0682 193.961 22.3704C192.641 23.6725 191.982 25.3252 191.982 27.3284C191.982 29.3317 192.641 30.9844 193.961 32.2865Z" fill="#32373E"/>
<path d="M231.255 16.8113H235.578V37.8456H231.408V24.2033L225.41 33.9692H224.923L218.925 24.2334V37.8456H214.724V16.8113H219.047L225.166 26.7575L231.255 16.8113Z" fill="#32373E"/>
<path d="M254.102 16.8113V20.7778H245.577V25.7659H253.858V29.7323H245.577V37.8456H241.376V16.8113H254.102Z" fill="#32373E"/>
<path d="M276.922 35.1111C274.771 37.2145 272.152 38.2662 269.067 38.2662C265.982 38.2662 263.364 37.2145 261.213 35.1111C259.081 32.9676 258.016 30.3734 258.016 27.3284C258.016 24.2634 259.081 21.6792 261.213 19.5758C263.364 17.4524 265.982 16.3906 269.067 16.3906C272.152 16.3906 274.771 17.4524 276.922 19.5758C279.073 21.6792 280.149 24.2634 280.149 27.3284C280.149 30.3934 279.073 32.9876 276.922 35.1111ZM264.166 32.2865C265.465 33.5686 267.099 34.2096 269.067 34.2096C271.036 34.2096 272.67 33.5686 273.969 32.2865C275.288 30.9844 275.948 29.3317 275.948 27.3284C275.948 25.3252 275.288 23.6725 273.969 22.3704C272.65 21.0682 271.016 20.4172 269.067 20.4172C267.119 20.4172 265.485 21.0682 264.166 22.3704C262.846 23.6725 262.187 25.3252 262.187 27.3284C262.187 29.3317 262.846 30.9844 264.166 32.2865Z" fill="#32373E"/>
<path d="M301.156 37.8456H296.62L292.327 30.5437H289.13V37.8456H284.929V16.8113H293.453C295.422 16.8113 297.097 17.4924 298.477 18.8546C299.857 20.2169 300.547 21.8595 300.547 23.7827C300.547 25.0848 300.171 26.2968 299.42 27.4186C298.67 28.5204 297.675 29.3517 296.437 29.9126L301.156 37.8456ZM293.453 20.6876H289.13V26.9077H293.453C294.245 26.9077 294.925 26.6073 295.493 26.0063C296.061 25.3853 296.346 24.6441 296.346 23.7827C296.346 22.9213 296.061 22.1901 295.493 21.5891C294.925 20.9881 294.245 20.6876 293.453 20.6876Z" fill="#32373E"/>
<path d="M303.427 16.8113H319.106V20.7778H313.352V37.8456H309.151V20.7778H303.427V16.8113Z" fill="#32373E"/>
<path d="M339.999 37.8456H335.433L334.154 34.0594H325.66L324.381 37.8456H319.845L327.304 16.8113H332.51L339.999 37.8456ZM329.922 21.5891L326.999 30.1831H332.845L329.922 21.5891Z" fill="#32373E"/>
</svg>
