<svg xmlns="http://www.w3.org/2000/svg" width="24" height="25" viewBox="0 0 24 25" fill="none">
  <path fill-rule="evenodd" clip-rule="evenodd" d="M12.0008 20.2998C10.7858 20.2998 9.80078 19.3148 9.80078 18.0998C9.80078 16.8848 10.7858 15.8998 12.0008 15.8998C13.2158 15.8998 14.2008 16.8848 14.2008 18.0998C14.2008 19.3148 13.2158 20.2998 12.0008 20.2998ZM11.0008 18.0998C11.0008 18.6521 11.4485 19.0998 12.0008 19.0998C12.5531 19.0998 13.0008 18.6521 13.0008 18.0998C13.0008 17.5475 12.5531 17.0998 12.0008 17.0998C11.4485 17.0998 11.0008 17.5475 11.0008 18.0998Z" fill="#F14635"/>
  <path fill-rule="evenodd" clip-rule="evenodd" d="M12.0008 14.6998C10.7858 14.6998 9.80078 13.7148 9.80078 12.4998C9.80078 11.2848 10.7858 10.2998 12.0008 10.2998C13.2158 10.2998 14.2008 11.2848 14.2008 12.4998C14.2008 13.7148 13.2158 14.6998 12.0008 14.6998ZM11.0008 12.4998C11.0008 13.0521 11.4485 13.4998 12.0008 13.4998C12.5531 13.4998 13.0008 13.0521 13.0008 12.4998C13.0008 11.9475 12.5531 11.4998 12.0008 11.4998C11.4485 11.4998 11.0008 11.9475 11.0008 12.4998Z" fill="#F14635"/>
  <path fill-rule="evenodd" clip-rule="evenodd" d="M9.80078 6.8998C9.80078 8.11483 10.7858 9.0998 12.0008 9.0998C13.2158 9.0998 14.2008 8.11483 14.2008 6.8998C14.2008 5.68478 13.2158 4.6998 12.0008 4.6998C10.7858 4.6998 9.80078 5.68478 9.80078 6.8998ZM12.0008 7.8998C11.4485 7.8998 11.0008 7.45209 11.0008 6.8998C11.0008 6.34752 11.4485 5.8998 12.0008 5.8998C12.5531 5.8998 13.0008 6.34752 13.0008 6.8998C13.0008 7.45209 12.5531 7.8998 12.0008 7.8998Z" fill="#F14635"/>
</svg>
