<svg xmlns="http://www.w3.org/2000/svg" width="24" height="24" viewBox="0 0 24 24" fill="none">
  <path fill-rule="evenodd" clip-rule="evenodd" d="M3.75 10.5C3.75 6.77208 6.77208 3.75 10.5 3.75C14.2279 3.75 17.25 6.77208 17.25 10.5C17.25 14.2279 14.2279 17.25 10.5 17.25C6.77208 17.25 3.75 14.2279 3.75 10.5ZM10.5 2.25C5.94365 2.25 2.25 5.94365 2.25 10.5C2.25 15.0563 5.94365 18.75 10.5 18.75C12.5082 18.75 14.3488 18.0325 15.7794 16.8398L20.4699 21.5304C20.7628 21.8233 21.2377 21.8233 21.5306 21.5304C21.8235 21.2375 21.8235 20.7626 21.5306 20.4697L16.8401 15.7792C18.0326 14.3486 18.75 12.5081 18.75 10.5C18.75 5.94365 15.0563 2.25 10.5 2.25Z" fill="#919191"/>
</svg>
