<svg xmlns="http://www.w3.org/2000/svg" width="28" height="28" viewBox="0 0 28 28" fill="none">
  <path d="M24.0115 13.2364L5.53641 2.89037C5.38099 2.80333 5.2027 2.7658 5.02537 2.7828C4.84805 2.79981 4.68014 2.87053 4.54408 2.98551C4.40803 3.1005 4.31031 3.25427 4.26399 3.42628C4.21767 3.59829 4.22495 3.78034 4.28486 3.9481L7.76967 13.7056C7.83763 13.8959 7.83763 14.1038 7.76967 14.2941L4.28486 24.0516C4.22495 24.2193 4.21767 24.4014 4.26399 24.5734C4.31031 24.7454 4.40803 24.8992 4.54408 25.0142C4.68014 25.1292 4.84805 25.1999 5.02537 25.2169C5.2027 25.2339 5.38099 25.1964 5.53642 25.1093L24.0115 14.7633C24.1472 14.6873 24.2602 14.5765 24.3388 14.4423C24.4175 14.3081 24.4589 14.1554 24.4589 13.9998C24.4589 13.8443 24.4175 13.6916 24.3388 13.5574C24.2602 13.4232 24.1472 13.3124 24.0115 13.2364V13.2364Z" stroke="#32373E" stroke-width="1.5" stroke-linecap="round" stroke-linejoin="round"/>
  <path d="M7.875 14H14.875" stroke="#32373E" stroke-width="1.5" stroke-linecap="round" stroke-linejoin="round"/>
</svg>
