<svg width="150" height="25" viewBox="0 0 150 25" fill="none" xmlns="http://www.w3.org/2000/svg">
  <path fill-rule="evenodd" clip-rule="evenodd" d="M5.86584 0.415039H19.5506C22.5533 0.415039 25.0024 2.86384 25.0024 5.86605V19.5489C25.0024 22.5511 22.5394 24.9999 19.5506 24.9999H5.86584C2.86321 24.9999 0.414062 22.5511 0.414062 19.5489V5.86605C0.414062 2.86384 2.87705 0.415039 5.86584 0.415039Z" fill="#C5C7C8"/>
  <path fill-rule="evenodd" clip-rule="evenodd" d="M5.45178 0H19.1366C22.1392 0 24.5883 2.44881 24.5883 5.45101V19.1339C24.5883 22.1361 22.1254 24.5849 19.1366 24.5849H5.45178C2.44915 24.5849 0 22.1361 0 19.1339V5.45101C0 2.44881 2.46299 0 5.45178 0Z" fill="#F14635"/>
  <path fill-rule="evenodd" clip-rule="evenodd" d="M7.62471 6.83445C7.55553 6.91746 7.51402 7.02814 7.51402 7.15266C7.51402 7.44319 7.74925 7.67839 8.03982 7.67839C8.3304 7.67839 8.56563 7.44319 8.56563 7.15266C8.56563 7.00047 8.49644 6.86212 8.39959 6.76527C8.41342 6.55775 8.42726 6.35022 8.46877 6.15653H16.5772C16.3974 5.3541 15.9823 4.64851 15.4149 4.09511C14.6539 3.34801 13.6023 2.89146 12.4538 2.89146C11.3054 2.89146 10.2676 3.34801 9.50655 4.08127C8.74551 4.82837 8.26121 5.85216 8.2197 6.98664C8.2197 7.15266 8.08133 7.27717 7.91529 7.26334C7.74925 7.26334 7.62471 7.12499 7.62471 6.95897C7.61088 6.91746 7.61088 6.87596 7.62471 6.83445ZM7.55553 9.18641L7.54169 10.9711C7.55553 11.2202 7.74925 11.4139 7.98448 11.4277H7.99831H8.01215H8.02599H12.3431C10.8902 12.8804 9.49271 14.3054 8.03982 15.7857C7.92913 15.8687 7.85994 16.0071 7.85994 16.1593C7.85994 16.1731 7.85994 16.1731 7.85994 16.187V17.529V17.5428C7.85994 17.8057 8.08133 18.0132 8.3304 18.0132C8.34424 18.0132 8.34424 18.0132 8.35807 18.0132H16.7295H16.7433C17.0062 18.0132 17.2138 17.8057 17.2138 17.5428C17.2138 17.529 17.2138 17.5151 17.2138 17.4874L17.2276 15.7027C17.2138 15.4537 17.02 15.26 16.7848 15.2462H16.771H16.7571H16.7433H12.4262C13.879 13.7935 15.2766 12.3685 16.7295 10.8881C16.8402 10.8051 16.9093 10.6668 16.9093 10.5146C16.9093 10.5007 16.9093 10.5007 16.9093 10.4869V9.1449V9.13107C16.9093 8.8682 16.6879 8.66068 16.4389 8.66068C16.425 8.66068 16.425 8.66068 16.4112 8.66068H8.03982H8.02599C7.76308 8.66068 7.55553 8.8682 7.55553 9.13107C7.55553 9.14491 7.55553 9.15874 7.55553 9.18641ZM5.74288 6.1427H7.70774C7.90145 5.17424 8.39958 4.30263 9.0776 3.63855C9.94933 2.79461 11.1393 2.28271 12.44 2.28271C13.7545 2.28271 14.9445 2.80845 15.8162 3.66622C16.6879 4.52399 17.2414 5.69998 17.2691 7.01431C17.2691 7.18033 17.1446 7.30484 16.9785 7.31868C16.8125 7.31868 16.6879 7.19416 16.6741 7.02814C16.6741 6.94513 16.6741 6.87596 16.6603 6.80678C16.5773 6.90363 16.5219 7.02814 16.5219 7.16649C16.5219 7.45703 16.7571 7.69222 17.0477 7.69222C17.3383 7.69222 17.5735 7.45703 17.5735 7.16649C17.5735 7.00047 17.4905 6.84828 17.3798 6.75144C17.366 6.55775 17.3521 6.35022 17.3106 6.17037H18.9434C19.6076 6.17037 20.1472 6.70993 20.1472 7.37402V19.3275C20.1472 19.9916 19.6076 20.5312 18.9434 20.5312H5.74288C5.0787 20.5312 4.53906 19.9916 4.53906 19.3275V7.34635C4.53906 6.68226 5.0787 6.1427 5.74288 6.1427Z" fill="white"/>
  <path fill-rule="evenodd" clip-rule="evenodd" d="M8.09375 6.82045C8.17677 4.34397 10.197 2.39323 12.66 2.43473C15.1091 2.47624 17.0878 4.49616 17.0878 6.97263" fill="#F14635"/>
  <path d="M38.0206 8.96689L34.112 15.1242H38.1012V16.8949H31.748V15.4193L35.6566 9.27543H31.8421V7.5047H38.0206V8.96689Z" fill="#32373E"/>
  <path d="M47.7016 15.6742C46.7524 16.6132 45.5973 17.0827 44.2363 17.0827C42.8752 17.0827 41.7201 16.6132 40.7709 15.6742C39.8307 14.7173 39.3606 13.5592 39.3606 12.1998C39.3606 10.8315 39.8307 9.67787 40.7709 8.73884C41.7201 7.79088 42.8752 7.31689 44.2363 7.31689C45.5973 7.31689 46.7524 7.79088 47.7016 8.73884C48.6508 9.67787 49.1254 10.8315 49.1254 12.1998C49.1254 13.5681 48.6508 14.7262 47.7016 15.6742ZM42.0738 14.4132C42.6469 14.9856 43.3677 15.2718 44.2363 15.2718C45.1048 15.2718 45.8257 14.9856 46.3987 14.4132C46.9808 13.8319 47.2718 13.0941 47.2718 12.1998C47.2718 11.3055 46.9808 10.5677 46.3987 9.9864C45.8167 9.4051 45.0959 9.11445 44.2363 9.11445C43.3766 9.11445 42.6558 9.4051 42.0738 9.9864C41.4917 10.5677 41.2007 11.3055 41.2007 12.1998C41.2007 13.0941 41.4917 13.8319 42.0738 14.4132Z" fill="#32373E"/>
  <path d="M56.6738 13.2327V7.5047H58.5274V16.8949H57.117L53.0876 11.1535V16.8949H51.234V7.5047H52.6443L56.6738 13.2327Z" fill="#32373E"/>
  <path d="M69.1363 16.8949H67.1216L66.5574 15.2047H62.81L62.2459 16.8949H60.2446L63.5353 7.5047H65.8321L69.1363 16.8949ZM64.6905 9.63762L63.401 13.4742H65.9799L64.6905 9.63762Z" fill="#32373E"/>
  <path d="M78.7529 12.0657L82.366 16.8949H80.2304L76.8725 12.4949V16.8949H75.0189V7.5047H76.8725V11.6498L80.0961 7.5047H82.2317L78.7529 12.0657Z" fill="#32373E"/>
  <path d="M91.1995 15.6742C90.2503 16.6132 89.0952 17.0827 87.7341 17.0827C86.373 17.0827 85.2179 16.6132 84.2688 15.6742C83.3286 14.7173 82.8584 13.5592 82.8584 12.1998C82.8584 10.8315 83.3286 9.67787 84.2688 8.73884C85.2179 7.79088 86.373 7.31689 87.7341 7.31689C89.0952 7.31689 90.2503 7.79088 91.1995 8.73884C92.1486 9.67787 92.6232 10.8315 92.6232 12.1998C92.6232 13.5681 92.1486 14.7262 91.1995 15.6742ZM85.5716 14.4132C86.1447 14.9856 86.8655 15.2718 87.7341 15.2718C88.6027 15.2718 89.3235 14.9856 89.8966 14.4132C90.4786 13.8319 90.7696 13.0941 90.7696 12.1998C90.7696 11.3055 90.4786 10.5677 89.8966 9.9864C89.3146 9.4051 88.5937 9.11445 87.7341 9.11445C86.8745 9.11445 86.1537 9.4051 85.5716 9.9864C84.9896 10.5677 84.6986 11.3055 84.6986 12.1998C84.6986 13.0941 84.9896 13.8319 85.5716 14.4132Z" fill="#32373E"/>
  <path d="M102.025 7.5047H103.932V16.8949H102.092V10.8047L99.4463 15.1644H99.2314L96.5854 10.8181V16.8949H94.7319V7.5047H96.6391L99.3389 11.9449L102.025 7.5047Z" fill="#32373E"/>
  <path d="M112.105 7.5047V9.27543H108.344V11.5023H111.997V13.273H108.344V16.8949H106.49V7.5047H112.105Z" fill="#32373E"/>
  <path d="M122.172 15.6742C121.223 16.6132 120.068 17.0827 118.707 17.0827C117.346 17.0827 116.191 16.6132 115.242 15.6742C114.301 14.7173 113.831 13.5592 113.831 12.1998C113.831 10.8315 114.301 9.67787 115.242 8.73884C116.191 7.79088 117.346 7.31689 118.707 7.31689C120.068 7.31689 121.223 7.79088 122.172 8.73884C123.122 9.67787 123.596 10.8315 123.596 12.1998C123.596 13.5681 123.122 14.7262 122.172 15.6742ZM116.545 14.4132C117.118 14.9856 117.838 15.2718 118.707 15.2718C119.576 15.2718 120.296 14.9856 120.869 14.4132C121.452 13.8319 121.743 13.0941 121.743 12.1998C121.743 11.3055 121.452 10.5677 120.869 9.9864C120.287 9.4051 119.567 9.11445 118.707 9.11445C117.847 9.11445 117.127 9.4051 116.545 9.9864C115.962 10.5677 115.671 11.3055 115.671 12.1998C115.671 13.0941 115.962 13.8319 116.545 14.4132Z" fill="#32373E"/>
  <path d="M132.864 16.8949H130.862L128.969 13.6352H127.558V16.8949H125.705V7.5047H129.466C130.334 7.5047 131.073 7.80876 131.682 8.41689C132.291 9.02502 132.595 9.75835 132.595 10.6169C132.595 11.1982 132.429 11.7392 132.098 12.2401C131.767 12.7319 131.328 13.1031 130.782 13.3535L132.864 16.8949ZM129.466 9.23518H127.558V12.012H129.466C129.815 12.012 130.115 11.8779 130.366 11.6096C130.616 11.3323 130.742 11.0014 130.742 10.6169C130.742 10.2323 130.616 9.90591 130.366 9.63762C130.115 9.36933 129.815 9.23518 129.466 9.23518Z" fill="#32373E"/>
  <path d="M133.866 7.5047H140.783V9.27543H138.245V16.8949H136.391V9.27543H133.866V7.5047Z" fill="#32373E"/>
  <path d="M150.001 16.8949H147.986L147.422 15.2047H143.674L143.11 16.8949H141.109L144.4 7.5047H146.697L150.001 16.8949ZM145.555 9.63762L144.265 13.4742H146.844L145.555 9.63762Z" fill="#32373E"/>
</svg>
