<svg xmlns="http://www.w3.org/2000/svg" width="24" height="24" viewBox="0 0 24 24" fill="none">
  <circle cx="11.9998" cy="7.2" r="3.2" stroke="#828282" stroke-width="1.5"/>
  <path d="M16.7998 9.6001C18.1253 9.6001 19.1998 8.70467 19.1998 7.6001C19.1998 6.49553 18.1253 5.6001 16.7998 5.6001" stroke="#828282" stroke-width="1.5" stroke-linecap="round"/>
  <path d="M7.2002 9.6001C5.87471 9.6001 4.8002 8.70467 4.8002 7.6001C4.8002 6.49553 5.87471 5.6001 7.2002 5.6001" stroke="#828282" stroke-width="1.5" stroke-linecap="round"/>
  <ellipse cx="12.0002" cy="15.9998" rx="4.8" ry="3.2" stroke="#828282" stroke-width="1.5"/>
  <path d="M18.3999 17.6001C19.8033 17.2923 20.7999 16.5129 20.7999 15.6001C20.7999 14.6872 19.8033 13.9079 18.3999 13.6001" stroke="#828282" stroke-width="1.5" stroke-linecap="round"/>
  <path d="M5.6001 17.6001C4.1967 17.2923 3.2001 16.5129 3.2001 15.6001C3.2001 14.6872 4.1967 13.9079 5.6001 13.6001" stroke="#828282" stroke-width="1.5" stroke-linecap="round"/>
</svg>
